<mxfile host="65bd71144e">
    <diagram id="wwDjKg-wkXj_FrtLo3fE" name="Page-1">
        <mxGraphModel dx="1122" dy="658" grid="1" gridSize="10" guides="1" tooltips="1" connect="1" arrows="1" fold="1" page="1" pageScale="1" pageWidth="850" pageHeight="1100" math="0" shadow="0">
            <root>
                <mxCell id="0"/>
                <mxCell id="1" parent="0"/>
                <mxCell id="13" style="edgeStyle=orthogonalEdgeStyle;html=1;exitX=0.5;exitY=1;exitDx=0;exitDy=0;entryX=0.5;entryY=0;entryDx=0;entryDy=0;fontFamily=Courier New;rounded=1;endSize=4;endArrow=blockThin;endFill=1;startSize=4;jumpSize=6;strokeColor=default;strokeWidth=1;targetPerimeterSpacing=0;" edge="1" parent="1" source="2" target="3">
                    <mxGeometry relative="1" as="geometry">
                        <Array as="points">
                            <mxPoint x="670" y="220"/>
                            <mxPoint x="410" y="220"/>
                        </Array>
                    </mxGeometry>
                </mxCell>
                <mxCell id="14" style="edgeStyle=orthogonalEdgeStyle;rounded=1;jumpSize=6;html=1;exitX=0.5;exitY=1;exitDx=0;exitDy=0;strokeColor=default;strokeWidth=1;fontFamily=Courier New;endArrow=blockThin;endFill=1;startSize=4;endSize=4;targetPerimeterSpacing=0;" edge="1" parent="1" source="2" target="4">
                    <mxGeometry relative="1" as="geometry"/>
                </mxCell>
                <mxCell id="15" style="edgeStyle=orthogonalEdgeStyle;rounded=1;jumpSize=6;html=1;exitX=0.5;exitY=1;exitDx=0;exitDy=0;entryX=0.5;entryY=0;entryDx=0;entryDy=0;strokeColor=default;strokeWidth=1;fontFamily=Courier New;endArrow=blockThin;endFill=1;startSize=4;endSize=4;targetPerimeterSpacing=0;" edge="1" parent="1" source="2" target="5">
                    <mxGeometry relative="1" as="geometry"/>
                </mxCell>
                <mxCell id="2" value="SYSFILE ACCESS" style="rounded=1;whiteSpace=wrap;html=1;fontFamily=Courier New;fontColor=#FFFFFF;fillColor=#000000;" vertex="1" parent="1">
                    <mxGeometry x="615" y="160" width="110" height="40" as="geometry"/>
                </mxCell>
                <mxCell id="17" style="edgeStyle=orthogonalEdgeStyle;rounded=1;jumpSize=6;html=1;exitX=0.5;exitY=1;exitDx=0;exitDy=0;entryX=0.5;entryY=0;entryDx=0;entryDy=0;strokeColor=default;strokeWidth=1;fontFamily=Courier New;endArrow=blockThin;endFill=1;startSize=4;endSize=4;targetPerimeterSpacing=0;" edge="1" parent="1" source="3" target="7">
                    <mxGeometry relative="1" as="geometry"/>
                </mxCell>
                <mxCell id="18" style="edgeStyle=orthogonalEdgeStyle;rounded=1;jumpSize=6;html=1;exitX=0.5;exitY=1;exitDx=0;exitDy=0;strokeColor=default;strokeWidth=1;fontFamily=Courier New;endArrow=blockThin;endFill=1;startSize=4;endSize=4;targetPerimeterSpacing=0;" edge="1" parent="1" source="3" target="9">
                    <mxGeometry relative="1" as="geometry">
                        <Array as="points">
                            <mxPoint x="410" y="320"/>
                            <mxPoint x="495" y="320"/>
                        </Array>
                    </mxGeometry>
                </mxCell>
                <mxCell id="19" style="edgeStyle=orthogonalEdgeStyle;rounded=1;jumpSize=6;html=1;exitX=0.5;exitY=1;exitDx=0;exitDy=0;strokeColor=default;strokeWidth=1;fontFamily=Courier New;endArrow=blockThin;endFill=1;startSize=4;endSize=4;targetPerimeterSpacing=0;entryX=0.25;entryY=0;entryDx=0;entryDy=0;" edge="1" parent="1" source="3" target="10">
                    <mxGeometry relative="1" as="geometry">
                        <Array as="points">
                            <mxPoint x="410" y="320"/>
                            <mxPoint x="573" y="320"/>
                        </Array>
                    </mxGeometry>
                </mxCell>
                <mxCell id="33" style="edgeStyle=orthogonalEdgeStyle;rounded=1;jumpSize=6;html=1;exitX=0.5;exitY=1;exitDx=0;exitDy=0;strokeColor=default;strokeWidth=1;fontFamily=Courier New;endArrow=blockThin;endFill=1;startSize=4;endSize=4;targetPerimeterSpacing=0;entryX=0.75;entryY=0;entryDx=0;entryDy=0;" edge="1" parent="1" source="3" target="29">
                    <mxGeometry relative="1" as="geometry">
                        <mxPoint x="1055" y="300" as="targetPoint"/>
                        <Array as="points">
                            <mxPoint x="410" y="300"/>
                            <mxPoint x="1073" y="300"/>
                        </Array>
                    </mxGeometry>
                </mxCell>
                <mxCell id="43" style="edgeStyle=orthogonalEdgeStyle;rounded=1;jumpSize=6;html=1;exitX=0.5;exitY=1;exitDx=0;exitDy=0;entryX=0.5;entryY=0;entryDx=0;entryDy=0;strokeColor=default;strokeWidth=1;fontFamily=Courier New;endArrow=blockThin;endFill=1;startSize=4;endSize=4;targetPerimeterSpacing=0;" edge="1" parent="1" source="3" target="41">
                    <mxGeometry relative="1" as="geometry">
                        <Array as="points">
                            <mxPoint x="410" y="300"/>
                            <mxPoint x="1240" y="300"/>
                        </Array>
                    </mxGeometry>
                </mxCell>
                <mxCell id="45" style="edgeStyle=orthogonalEdgeStyle;rounded=1;jumpSize=6;html=1;exitX=0.5;exitY=1;exitDx=0;exitDy=0;entryX=0.5;entryY=0;entryDx=0;entryDy=0;strokeColor=default;strokeWidth=1;fontFamily=Courier New;endArrow=blockThin;endFill=1;startSize=4;endSize=4;targetPerimeterSpacing=0;" edge="1" parent="1" source="3" target="6">
                    <mxGeometry relative="1" as="geometry"/>
                </mxCell>
                <mxCell id="3" value="GPIO" style="rounded=1;whiteSpace=wrap;html=1;fillColor=#00FF00;strokeColor=default;fontFamily=Courier New;" vertex="1" parent="1">
                    <mxGeometry x="385" y="240" width="50" height="40" as="geometry"/>
                </mxCell>
                <mxCell id="20" style="edgeStyle=orthogonalEdgeStyle;rounded=1;jumpSize=6;html=1;exitX=0.5;exitY=1;exitDx=0;exitDy=0;strokeColor=default;strokeWidth=1;fontFamily=Courier New;endArrow=blockThin;endFill=1;startSize=4;endSize=4;targetPerimeterSpacing=0;entryX=0.75;entryY=0;entryDx=0;entryDy=0;" edge="1" parent="1" source="4" target="10">
                    <mxGeometry relative="1" as="geometry">
                        <mxPoint x="590" y="320" as="targetPoint"/>
                        <Array as="points">
                            <mxPoint x="670" y="320"/>
                            <mxPoint x="608" y="320"/>
                        </Array>
                    </mxGeometry>
                </mxCell>
                <mxCell id="21" style="edgeStyle=orthogonalEdgeStyle;rounded=1;jumpSize=6;html=1;exitX=0.5;exitY=1;exitDx=0;exitDy=0;entryX=0.5;entryY=0;entryDx=0;entryDy=0;strokeColor=default;strokeWidth=1;fontFamily=Courier New;endArrow=blockThin;endFill=1;startSize=4;endSize=4;targetPerimeterSpacing=0;" edge="1" parent="1" source="4" target="11">
                    <mxGeometry relative="1" as="geometry">
                        <Array as="points">
                            <mxPoint x="670" y="320"/>
                            <mxPoint x="725" y="320"/>
                        </Array>
                    </mxGeometry>
                </mxCell>
                <mxCell id="22" style="edgeStyle=orthogonalEdgeStyle;rounded=1;jumpSize=6;html=1;exitX=0.5;exitY=1;exitDx=0;exitDy=0;entryX=0.5;entryY=0;entryDx=0;entryDy=0;strokeColor=default;strokeWidth=1;fontFamily=Courier New;endArrow=blockThin;endFill=1;startSize=4;endSize=4;targetPerimeterSpacing=0;" edge="1" parent="1" source="5" target="12">
                    <mxGeometry relative="1" as="geometry">
                        <Array as="points">
                            <mxPoint x="945" y="320"/>
                            <mxPoint x="845" y="320"/>
                        </Array>
                    </mxGeometry>
                </mxCell>
                <mxCell id="32" style="edgeStyle=orthogonalEdgeStyle;rounded=1;jumpSize=6;html=1;exitX=0.5;exitY=1;exitDx=0;exitDy=0;entryX=0.25;entryY=0;entryDx=0;entryDy=0;strokeColor=default;strokeWidth=1;fontFamily=Courier New;endArrow=blockThin;endFill=1;startSize=4;endSize=4;targetPerimeterSpacing=0;" edge="1" parent="1" source="5" target="29">
                    <mxGeometry relative="1" as="geometry">
                        <Array as="points">
                            <mxPoint x="945" y="320"/>
                            <mxPoint x="1048" y="320"/>
                        </Array>
                    </mxGeometry>
                </mxCell>
                <mxCell id="5" value="PWM" style="rounded=1;whiteSpace=wrap;html=1;fillColor=#CC0066;strokeColor=default;fontFamily=Courier New;" vertex="1" parent="1">
                    <mxGeometry x="920" y="240" width="50" height="40" as="geometry"/>
                </mxCell>
                <mxCell id="6" value="LED" style="rounded=1;whiteSpace=wrap;html=1;fontFamily=Courier New;fillColor=#33FFFF;" vertex="1" parent="1">
                    <mxGeometry x="290" y="340" width="50" height="40" as="geometry"/>
                </mxCell>
                <mxCell id="7" value="&lt;font&gt;BUTTON&lt;/font&gt;" style="rounded=1;whiteSpace=wrap;html=1;fontFamily=Courier New;fillColor=#FF9933;" vertex="1" parent="1">
                    <mxGeometry x="380" y="340" width="60" height="40" as="geometry"/>
                </mxCell>
                <mxCell id="9" value="&lt;font&gt;HC_SR04&lt;/font&gt;" style="rounded=1;whiteSpace=wrap;html=1;fontFamily=Courier New;fillColor=#3399FF;" vertex="1" parent="1">
                    <mxGeometry x="465" y="340" width="60" height="40" as="geometry"/>
                </mxCell>
                <mxCell id="10" value="&lt;font&gt;KEYPAD&lt;br&gt;5BUTTONS&lt;/font&gt;" style="rounded=1;whiteSpace=wrap;html=1;fontFamily=Courier New;fillColor=#009900;" vertex="1" parent="1">
                    <mxGeometry x="555" y="340" width="70" height="40" as="geometry"/>
                </mxCell>
                <mxCell id="11" value="LM35" style="rounded=1;whiteSpace=wrap;html=1;fontFamily=Courier New;fillColor=#FFFF33;" vertex="1" parent="1">
                    <mxGeometry x="705" y="340" width="40" height="40" as="geometry"/>
                </mxCell>
                <mxCell id="25" style="edgeStyle=orthogonalEdgeStyle;rounded=1;jumpSize=6;html=1;exitX=0.5;exitY=1;exitDx=0;exitDy=0;entryX=0.5;entryY=0;entryDx=0;entryDy=0;strokeColor=default;strokeWidth=1;fontFamily=Courier New;endArrow=blockThin;endFill=1;startSize=4;endSize=4;targetPerimeterSpacing=0;" edge="1" parent="1" source="12" target="23">
                    <mxGeometry relative="1" as="geometry"/>
                </mxCell>
                <mxCell id="26" style="edgeStyle=orthogonalEdgeStyle;rounded=1;jumpSize=6;html=1;exitX=0.5;exitY=1;exitDx=0;exitDy=0;entryX=0.5;entryY=0;entryDx=0;entryDy=0;strokeColor=default;strokeWidth=1;fontFamily=Courier New;endArrow=blockThin;endFill=1;startSize=4;endSize=4;targetPerimeterSpacing=0;" edge="1" parent="1" source="12" target="24">
                    <mxGeometry relative="1" as="geometry"/>
                </mxCell>
                <mxCell id="12" value="SERVO" style="rounded=1;whiteSpace=wrap;html=1;fontFamily=Courier New;fillColor=#CC0000;" vertex="1" parent="1">
                    <mxGeometry x="825" y="340" width="40" height="40" as="geometry"/>
                </mxCell>
                <mxCell id="23" value="POSITION&lt;br&gt;SERVO" style="rounded=1;whiteSpace=wrap;html=1;fontFamily=Courier New;fillColor=#CC0000;" vertex="1" parent="1">
                    <mxGeometry x="755" y="420" width="70" height="40" as="geometry"/>
                </mxCell>
                <mxCell id="24" value="CONTINUOS&lt;br&gt;SERVO" style="rounded=1;whiteSpace=wrap;html=1;fontFamily=Courier New;fillColor=#CC0000;" vertex="1" parent="1">
                    <mxGeometry x="865" y="420" width="70" height="40" as="geometry"/>
                </mxCell>
                <mxCell id="27" style="edgeStyle=orthogonalEdgeStyle;rounded=1;jumpSize=6;html=1;exitX=0.5;exitY=1;exitDx=0;exitDy=0;entryX=0.5;entryY=0;entryDx=0;entryDy=0;strokeColor=default;strokeWidth=1;fontFamily=Courier New;endArrow=blockThin;endFill=1;startSize=4;endSize=4;targetPerimeterSpacing=0;" edge="1" parent="1" source="29" target="30">
                    <mxGeometry relative="1" as="geometry"/>
                </mxCell>
                <mxCell id="28" style="edgeStyle=orthogonalEdgeStyle;rounded=1;jumpSize=6;html=1;exitX=0.5;exitY=1;exitDx=0;exitDy=0;entryX=0.5;entryY=0;entryDx=0;entryDy=0;strokeColor=default;strokeWidth=1;fontFamily=Courier New;endArrow=blockThin;endFill=1;startSize=4;endSize=4;targetPerimeterSpacing=0;" edge="1" parent="1" source="29" target="31">
                    <mxGeometry relative="1" as="geometry"/>
                </mxCell>
                <mxCell id="47" style="edgeStyle=orthogonalEdgeStyle;rounded=1;jumpSize=6;html=1;exitX=0.5;exitY=1;exitDx=0;exitDy=0;strokeColor=default;strokeWidth=1;fontFamily=Courier New;endArrow=blockThin;endFill=1;startSize=4;endSize=4;targetPerimeterSpacing=0;" edge="1" parent="1" source="29" target="46">
                    <mxGeometry relative="1" as="geometry"/>
                </mxCell>
                <mxCell id="29" value="DC MOTOR" style="rounded=1;whiteSpace=wrap;html=1;fontFamily=Courier New;fillColor=#e51400;fontColor=#ffffff;strokeColor=#B20000;" vertex="1" parent="1">
                    <mxGeometry x="1035" y="340" width="50" height="40" as="geometry"/>
                </mxCell>
                <mxCell id="30" value="L298N&lt;br&gt;MODULE" style="rounded=1;whiteSpace=wrap;html=1;fontFamily=Courier New;fillColor=#e51400;fontColor=#ffffff;strokeColor=#B20000;" vertex="1" parent="1">
                    <mxGeometry x="955" y="420" width="70" height="40" as="geometry"/>
                </mxCell>
                <mxCell id="31" value="TB6612FNG&lt;br&gt;MODULE" style="rounded=1;whiteSpace=wrap;html=1;fontFamily=Courier New;fillColor=#e51400;fontColor=#ffffff;strokeColor=#B20000;" vertex="1" parent="1">
                    <mxGeometry x="1060" y="420" width="70" height="40" as="geometry"/>
                </mxCell>
                <mxCell id="35" style="edgeStyle=orthogonalEdgeStyle;rounded=1;jumpSize=6;html=1;exitX=0.5;exitY=1;exitDx=0;exitDy=0;entryX=0.25;entryY=0;entryDx=0;entryDy=0;strokeColor=default;strokeWidth=1;fontFamily=Courier New;endArrow=blockThin;endFill=1;startSize=4;endSize=4;targetPerimeterSpacing=0;" edge="1" parent="1" source="34" target="2">
                    <mxGeometry relative="1" as="geometry"/>
                </mxCell>
                <mxCell id="34" value="MISCELLANEOUS" style="rounded=1;whiteSpace=wrap;html=1;fontFamily=Courier New;strokeColor=#000000;fillColor=#000000;fontColor=#FFFFFF;" vertex="1" parent="1">
                    <mxGeometry x="500" y="80" width="110" height="40" as="geometry"/>
                </mxCell>
                <mxCell id="37" style="edgeStyle=orthogonalEdgeStyle;rounded=1;jumpSize=6;html=1;exitX=0.5;exitY=1;exitDx=0;exitDy=0;strokeColor=default;strokeWidth=1;fontFamily=Courier New;endArrow=blockThin;endFill=1;startSize=4;endSize=4;targetPerimeterSpacing=0;" edge="1" parent="1" source="36">
                    <mxGeometry relative="1" as="geometry">
                        <mxPoint x="670" y="160" as="targetPoint"/>
                    </mxGeometry>
                </mxCell>
                <mxCell id="36" value="RAINBOW&lt;br&gt;COLORS" style="rounded=1;whiteSpace=wrap;html=1;fontFamily=Courier New;strokeColor=#000000;fillColor=#000000;fontColor=#FFFFFF;" vertex="1" parent="1">
                    <mxGeometry x="640" y="80" width="60" height="40" as="geometry"/>
                </mxCell>
                <mxCell id="39" style="edgeStyle=orthogonalEdgeStyle;rounded=1;jumpSize=6;html=1;exitX=0.5;exitY=1;exitDx=0;exitDy=0;strokeColor=default;strokeWidth=1;fontFamily=Courier New;endArrow=blockThin;endFill=1;startSize=4;endSize=4;targetPerimeterSpacing=0;entryX=0.75;entryY=0;entryDx=0;entryDy=0;" edge="1" parent="1" source="38" target="2">
                    <mxGeometry relative="1" as="geometry">
                        <mxPoint x="670" y="159.99999999999994" as="targetPoint"/>
                    </mxGeometry>
                </mxCell>
                <mxCell id="38" value="BLACKPIN ID" style="rounded=1;whiteSpace=wrap;html=1;fontFamily=Courier New;strokeColor=#000000;fillColor=#000000;fontColor=#FFFFFF;" vertex="1" parent="1">
                    <mxGeometry x="730" y="80" width="70" height="40" as="geometry"/>
                </mxCell>
                <mxCell id="41" value="STEPPER&lt;br&gt;MOTOR" style="rounded=1;whiteSpace=wrap;html=1;fontFamily=Courier New;fillColor=#CCCCCC;" vertex="1" parent="1">
                    <mxGeometry x="1210" y="340" width="60" height="40" as="geometry"/>
                </mxCell>
                <mxCell id="46" value="DC MOTOR&lt;br&gt;UTILS" style="rounded=1;whiteSpace=wrap;html=1;fontFamily=Courier New;fillColor=#e51400;fontColor=#ffffff;strokeColor=#B20000;gradientColor=none;" vertex="1" parent="1">
                    <mxGeometry x="1160" y="420" width="70" height="40" as="geometry"/>
                </mxCell>
                <mxCell id="4" value="ADC" style="rounded=1;whiteSpace=wrap;html=1;fillColor=#7F00FF;strokeColor=default;fontFamily=Courier New;fontColor=#FFFFFF;" vertex="1" parent="1">
                    <mxGeometry x="650" y="240" width="40" height="40" as="geometry"/>
                </mxCell>
            </root>
        </mxGraphModel>
    </diagram>
</mxfile>